<?xml version="1.0" encoding="utf-8"?>
<!-- Generator: Adobe Illustrator 23.0.3, SVG Export Plug-In . SVG Version: 6.00 Build 0)  -->
<svg version="1.1" id="Layer_1" xmlns="http://www.w3.org/2000/svg" xmlns:xlink="http://www.w3.org/1999/xlink" x="0px" y="0px"
	 viewBox="0 0 62.4 62.4" style="enable-background:new 0 0 62.4 62.4;" xml:space="preserve">
<style type="text/css">
	.st0{fill:#191919;}
</style>
<path class="st0" d="M31.2,61.5c-16.7,0-30.3-13.6-30.3-30.3c0-16.7,13.6-30.3,30.3-30.3c16.7,0,30.3,13.6,30.3,30.3
	C61.5,47.9,47.9,61.5,31.2,61.5z M31.2,4.8C16.7,4.8,4.8,16.7,4.8,31.2c0,14.5,11.8,26.3,26.3,26.3c14.5,0,26.3-11.8,26.3-26.3
	C57.5,16.7,45.7,4.8,31.2,4.8z"/>
<path class="st0" d="M22.1,46.7l-0.3-0.1c-1.1-0.2-1.9-1.3-1.5-2.4c1.3-3.6,4.7-8.4,11.8-9l0.4,0c3.4-0.3,6.4,0.5,9,2.2
	c0.9,0.7,1.1,2,0.3,2.8l-0.2,0.2c-0.6,0.7-1.7,0.7-2.4,0.2c-1.8-1.2-3.8-1.7-6.3-1.5l-0.4,0c-5.5,0.5-7.6,4.2-8.4,6.4
	C23.8,46.4,22.9,46.9,22.1,46.7z"/>
<circle class="st0" cx="20.7" cy="25.3" r="3.5"/>
<circle class="st0" cx="41.4" cy="25.3" r="3.5"/>
</svg>
